<svg xmlns="http://www.w3.org/2000/svg" viewBox="0 0 32 32"><path d="M27.172 6.844c.49-1.68-.542-3.357-.542-3.357-1.093-.062-2.233.135-3.208.831-1.297-.538-1.832-.681-3.209-.912C19.739 1.879 18.595.678 17.317 0c-1.376.892-2.556 2.222-2.979 3.834-1.328.321-2.69 1.126-3.548 1.704-2.449-1.014-4.8-.521-6.365.198-.155 2.154.352 4.41 1.651 6.161-.447 1.128-.69 2.38-.828 3.495-2.06.94-3.464 3.137-3.974 4.63 1.416 1.636 3.396 2.865 5.568 3.12.63 1.173 1.24 1.859 1.958 2.672-.455 1.193-.633 3.183.141 4.911 1.818.085 3.916-.573 5.141-1.563 1.504.513 3.097.71 4.682.656.85 1.223 2.272 1.964 3.724 2.187 1.03-1.105 1.798-2.555 1.786-4.094 1.546-1.07 2.282-2.101 2.927-3.037.812.05 2.072-.162 3.234-1.193-.158-1.12-.783-2.473-1.755-3.208.611-5.308-3.519-9.546-8.413-9.317-3.617.005-6.664 3.7-5.918 7.238.438 2.848 3.993 4.809 6.53 3.317.566-.288.463-.798-.05-.746-2.163 1.23-5.143-.816-4.848-3.277.06-2.473 2.628-4.352 4.998-3.814 2.61.422 4.558 3.033 4.249 5.647-.172 3.606-3.735 6.59-7.315 6.147-4.617-.25-8.565-4.569-8.26-9.197.18-3.623 2.048-7.567 5.619-8.916 3.86-1.6 8.671-.868 11.668 2.132 1.707 1.523 2.721 3.607 3.325 5.76.275.273.46.035.45-.139-.028-3.818-1.662-6.554-3.543-8.464z"/></svg>