<?xml version="1.0" encoding="UTF-8" standalone="no"?>
<svg
   xmlns:dc="http://purl.org/dc/elements/1.1/"
   xmlns:cc="http://creativecommons.org/ns#"
   xmlns:rdf="http://www.w3.org/1999/02/22-rdf-syntax-ns#"
   xmlns:svg="http://www.w3.org/2000/svg"
   xmlns="http://www.w3.org/2000/svg"
   xmlns:sodipodi="http://sodipodi.sourceforge.net/DTD/sodipodi-0.dtd"
   xmlns:inkscape="http://www.inkscape.org/namespaces/inkscape"
   width="36"
   height="24"
   viewBox="0 0 36 24"
   version="1.1"
   id="svg6"
   sodipodi:docname="desktop.svg"
   inkscape:version="0.92.4 (5da689c313, 2019-01-14)">
  <metadata
     id="metadata12">
    <rdf:RDF>
      <cc:Work
         rdf:about="">
        <dc:format>image/svg+xml</dc:format>
        <dc:type
           rdf:resource="http://purl.org/dc/dcmitype/StillImage" />
        <dc:title />
      </cc:Work>
    </rdf:RDF>
  </metadata>
  <defs
     id="defs10" />
  <sodipodi:namedview
     pagecolor="#ffffff"
     bordercolor="#666666"
     borderopacity="1"
     objecttolerance="10"
     gridtolerance="10"
     guidetolerance="10"
     inkscape:pageopacity="0"
     inkscape:pageshadow="2"
     inkscape:window-width="1410"
     inkscape:window-height="790"
     id="namedview8"
     showgrid="false"
     inkscape:zoom="19.666667"
     inkscape:cx="26.477617"
     inkscape:cy="11.822219"
     inkscape:window-x="322"
     inkscape:window-y="222"
     inkscape:window-maximized="0"
     inkscape:current-layer="svg6" />
  <path
     d="M 0,0 H 24 V 24 H 0 Z"
     id="path2"
     inkscape:connector-curvature="0"
     style="fill:none" />
  <path
     d="M 21,2 H 3 C 1.9,2 1,2.9 1,4 v 12 c 0,1.1 0.9,2 2,2 h 7 v 2 H 8 v 2 h 8 v -2 h -2 v -2 h 7 c 1.1,0 2,-0.9 2,-2 V 4 C 23,2.9 22.1,2 21,2 Z m 0,14 H 3 V 4 h 18 z"
     id="path4"
     inkscape:connector-curvature="0" />
  <path
     style="fill:#000000;fill-opacity:1;stroke:none;stroke-width:2;stroke-miterlimit:4;stroke-dasharray:none;stroke-opacity:1"
     d="M 25.5 2 C 25.223 2 25 2.223 25 2.5 L 25 21.5 C 25 21.777 25.223 22 25.5 22 L 34.5 22 C 34.777 22 35 21.777 35 21.5 L 35 2.5 C 35 2.223 34.777 2 34.5 2 L 25.5 2 z M 26.970703 4 L 33.029297 4 C 33.553358 4 34 4.446642 34 4.9707031 L 34 5.0292969 C 34 5.553358 33.553358 6 33.029297 6 L 26.970703 6 C 26.446642 6 26 5.5533578 26 5.0292969 L 26 4.9707031 C 26 4.446642 26.446642 4 26.970703 4 z M 30.083984 13.695312 C 30.955771 13.695314 31.669922 14.407511 31.669922 15.279297 C 31.669922 16.151083 30.955771 16.865234 30.083984 16.865234 C 29.212198 16.865234 28.5 16.151083 28.5 15.279297 C 28.5 14.407511 29.212198 13.695312 30.083984 13.695312 z M 30.083984 14.277344 C 29.526544 14.277344 29.082031 14.721857 29.082031 15.279297 C 29.082031 15.836737 29.526544 16.283203 30.083984 16.283203 C 30.641424 16.283203 31.087891 15.836737 31.087891 15.279297 C 31.087891 14.721857 30.641424 14.277344 30.083984 14.277344 z "
     id="rect4526" />
</svg>
