<svg xmlns="http://www.w3.org/2000/svg" viewBox="0 0 24 24"><path d="M14 2H6c-1.1 0-2 .9-2 2v16c0 1.1.89 2 1.99 2H18c1.1 0 2-.9 2-2V8zm4 18H6V4h7v5h5z"/><path d="m6.705 17.89 1.16-.703c.49 1.12 1.766.904 1.68-.163V12.18h1.425v4.866c.088 2.735-3.52 2.706-4.265.844M11.744 17.737l1.16-.672c.743 1.297 2.37.973 2.372.163.072-1.166-3.186-.921-3.104-3.247.044-2.283 3.305-2.469 4.112-.743l-1.11.713c-.398-.872-1.588-.758-1.598 0-.04.66 1.069.91 1.613 1.188 2.002.813 1.833 2.962.645 3.678-1.307.768-3.414.369-4.09-1.08"/></svg>