<svg xmlns="http://www.w3.org/2000/svg" width="32" height="32"><path style="fill:currentColor;stroke-width:.05975699" d="M15.803 8.069c.06.03.107.102.18.102.065 0 .167-.024.172-.09.012-.084-.113-.137-.19-.173-.102-.042-.234-.06-.33-.006-.023.012-.047.042-.035.065.018.078.137.066.203.102zm-1.309.102c.072 0 .12-.072.18-.102.065-.036.185-.024.209-.096.012-.023-.012-.053-.036-.065-.096-.054-.227-.036-.329.006-.078.035-.203.09-.191.173.006.06.107.09.167.084zm13.213 16.66c-.216-.24-.317-.693-.43-1.177-.108-.484-.234-1.004-.628-1.339a1.614 1.614 0 0 0-.484-.293c.55-1.631.334-3.256-.221-4.726-.682-1.8-1.87-3.37-2.779-4.446-1.022-1.285-2.014-2.504-1.996-4.303.03-2.743.305-7.84-4.53-7.846-6.119-.012-4.589 6.179-4.655 8.08-.101 1.397-.382 2.497-1.344 3.865-1.13 1.345-2.719 3.514-3.472 5.779-.359 1.07-.526 2.157-.37 3.185-.389.347-.682.878-.992 1.207-.251.257-.616.353-1.016.496-.4.143-.837.359-1.106.867a1.53 1.53 0 0 0-.167.74c0 .234.036.473.072.706.071.484.149.938.047 1.243-.31.86-.352 1.458-.131 1.894.227.436.681.627 1.201.735 1.034.215 2.438.161 3.544.747 1.183.621 2.384.842 3.34.621.693-.155 1.26-.573 1.548-1.207.747-.006 1.571-.322 2.886-.394.89-.072 2.008.317 3.293.245.035.137.083.275.149.4v.006c.496.998 1.422 1.452 2.408 1.375.992-.078 2.038-.658 2.886-1.668.813-.98 2.152-1.386 3.042-1.924.442-.269.8-.603.83-1.093.025-.49-.262-1.034-.926-1.775zM15.977 5.918c.585-1.327 2.043-1.303 2.629-.024.388.848.215 1.846-.257 2.414a7.395 7.395 0 0 0-.753-.293c.065-.071.185-.161.233-.275.287-.705-.012-1.613-.544-1.631-.436-.03-.83.645-.705 1.374a4.257 4.257 0 0 0-.777-.263 2.38 2.38 0 0 1 .173-1.302zm-2.433-.687c.604 0 1.243.848 1.141 2.001-.209.06-.424.15-.61.275.073-.532-.196-1.2-.573-1.17-.502.04-.585 1.266-.107 1.678.06.048.113-.012-.353.329-.932-.873-.627-3.113.502-3.113zm-.813 3.627c.37-.275.813-.598.843-.628.28-.263.807-.848 1.667-.848.424 0 .932.137 1.548.532.376.245.675.263 1.35.555.502.21.82.58.628 1.088-.156.424-.657.86-1.357 1.082-.663.215-1.183.956-2.282.89a1.664 1.664 0 0 1-.574-.126c-.478-.209-.729-.621-1.195-.896-.514-.287-.789-.621-.879-.914-.083-.293 0-.538.251-.735zm.198 19.959c-.162 2.097-2.624 2.055-4.5 1.075-1.787-.944-4.1-.388-4.572-1.308-.143-.281-.143-.76.156-1.578v-.012c.143-.454.036-.956-.036-1.428-.072-.466-.108-.896.054-1.195.209-.4.508-.544.884-.675.616-.222.705-.204 1.171-.592.33-.34.568-.771.855-1.076.305-.328.598-.484 1.058-.412.484.072.902.406 1.308.956L10.48 24.7c.567 1.19 2.575 2.893 2.45 4.118zm-.084-1.548c-.245-.394-.574-.813-.86-1.171.424 0 .848-.132.997-.532.138-.37 0-.89-.442-1.488-.807-1.088-2.289-1.942-2.289-1.942-.806-.502-1.26-1.118-1.47-1.787-.209-.67-.179-1.392-.017-2.103.31-1.369 1.111-2.701 1.625-3.538.137-.102.048.191-.52 1.243-.508.962-1.458 3.185-.155 4.924.035-1.237.328-2.498.824-3.675.717-1.637 2.23-4.476 2.349-6.735.065.048.275.192.37.245.275.162.484.4.753.616.741.597 1.703.55 2.534.071.37-.209.67-.448.95-.537.592-.186 1.064-.514 1.333-.897.46 1.817 1.535 4.44 2.223 5.72.364.68 1.093 2.12 1.41 3.86a2.38 2.38 0 0 1 .651.083c.825-2.133-.699-4.434-1.392-5.073-.281-.275-.293-.395-.156-.389.753.67 1.745 2.014 2.104 3.526.167.693.197 1.416.024 2.133.98.407 2.145 1.07 1.834 2.08-.131-.006-.19 0-.25 0 .19-.604-.234-1.052-1.363-1.56-1.171-.514-2.151-.514-2.289.747-.723.251-1.093.879-1.279 1.631-.167.67-.215 1.476-.262 2.385-.03.46-.216 1.075-.407 1.733-1.918 1.368-4.583 1.966-6.83.43zm15.381-.687c-.053 1.004-2.462 1.189-3.776 2.778-.789.939-1.757 1.459-2.606 1.524-.848.066-1.583-.287-2.013-1.153-.281-.663-.144-1.38.065-2.17.221-.848.55-1.72.592-2.425.048-.909.101-1.703.25-2.313.156-.615.395-1.028.82-1.26.017-.013.041-.019.06-.03.047.788.436 1.589 1.123 1.762.753.197 1.834-.448 2.294-.974.538-.018.939-.054 1.35.305.592.508.425 1.81 1.023 2.486.633.693.836 1.165.818 1.47zM12.964 9.587c.12.113.281.269.479.424.394.31.944.634 1.63.634.694 0 1.345-.353 1.901-.646.293-.155.652-.418.885-.621.233-.203.352-.377.185-.395-.168-.018-.156.156-.359.305-.263.191-.58.442-.83.586-.443.25-1.166.61-1.787.61-.622 0-1.118-.288-1.488-.58-.185-.15-.34-.3-.46-.413-.09-.083-.114-.275-.257-.293-.084-.005-.108.222.101.389z"/></svg>