<svg xmlns="http://www.w3.org/2000/svg" viewBox="0 0 24 24"><path d="M17.5 1.422a5.499 5.499 0 0 0-5.5 5.5 5.5 5.5 0 0 0 5.5 5.5c1.75 0 3.294-.837 4.302-2.116l-1.299-1.298a3.664 3.664 0 1 1-3.008-5.756c1.013 0 1.93.411 2.592 1.073L18.412 6H23V1.422l-1.61 1.61a5.5 5.5 0 0 0-3.89-1.61z"/><path d="M2 3a1 1 0 0 0-1 1v4a1 1 0 0 0 1 1h8.654a7.076 7.076 0 0 1 .922-6zm1 2h2v2H3zm4 0h1v2H7zm-5 6a1 1 0 0 0-1 1v4a1 1 0 0 0 1 1h7v2H8a1 1 0 0 0-1 1H1v2h6a1 1 0 0 0 1 1h4a1 1 0 0 0 1-1h8v-2h-8a1 1 0 0 0-1-1h-1v-2h7a1 1 0 0 0 1-1v-2.102A7.069 7.069 0 0 1 11.615 11zm1 2h2v2H3zm4 0h1v2H7z"/></svg>