<svg viewBox="0 0 32 32" xmlns="http://www.w3.org/2000/svg"><path d="M15.803 8.069c.06.03.107.102.18.102.065 0 .167-.024.172-.09.012-.084-.113-.137-.19-.173-.226-.095-.383 0-.365.059.018.078.137.066.203.102zm-.92-.096c-.004-.127-.245-.117-.365-.059-.078.035-.203.09-.191.173.022.093.196.114.297.02.101-.094.235-.062.259-.134Zm11.282 14.049c1.085-3.248-.785-6.532-3-9.172-1.022-1.285-2.014-2.504-1.996-4.303.03-2.743.305-7.84-4.53-7.846-6.119-.012-4.589 6.179-4.655 8.08-.101 1.397-.382 2.497-1.344 3.865-2.026 2.571-4.297 5.78-3.842 8.964-.73.634-.669 1.387-2.047 1.71-1.23.528-1.337 1.211-1.162 2.306.376 1.674-.414 1.42-.158 2.953.392 1.383 3.02.748 4.819 1.666 2.061 1.057 4.15.979 4.888-.586.747-.006 1.571-.322 2.886-.394.89-.072 2.008.317 3.293.245.881 2.643 3.844 2.07 5.443.113.813-.98 2.152-1.386 3.042-1.924 1.23-.746.938-1.613.129-2.617-.873-.644-.38-2.577-1.766-3.06ZM18.606 5.894c.388.848.215 1.846-.257 2.414a7.395 7.395 0 0 0-.753-.293c.655-.495.29-1.898-.311-1.906-.436-.03-.83.645-.705 1.374-.25-.112-.51-.2-.777-.263-.073-.657.053-1.395.61-1.926.537-.532 1.64-.579 2.193.6Zm-5.062-.663c.604 0 1.243.848 1.141 2.001-.209.06-.424.15-.61.275.073-.532-.196-1.2-.573-1.17-.502.04-.585 1.266-.107 1.678.06.048.113-.012-.353.329-.932-.873-.627-3.113.502-3.113Zm-.225 3.186c.342-.17.878-1.047 1.922-1.035.424 0 .932.137 1.548.532.376.245.675.263 1.35.555.502.21.82.58.628 1.088-.156.424-.657.86-1.357 1.082-.663.215-1.183.956-2.282.89-.84.011-1.326-.805-1.769-1.022-.514-.287-.789-.621-.879-.914-.121-.596.16-.633.839-1.176Zm-4.89 21.475c-1.787-.944-4.1-.388-4.572-1.308-.372-1.041.501-1.303.12-3.018-.187-1.03.04-1.528.938-1.87 1.849-.489 1.657-2.004 2.82-2.094 1.361-.054 1.954 1.762 2.745 3.098.595 1.292 2.939 3.103 2.372 4.557-.468 1.601-2.619 1.567-4.423.635Zm4.416-2.623c-.245-.394-.574-.813-.86-1.171 1.449-.048 1.151-1.238.555-2.02-.807-1.088-2.289-1.942-2.289-1.942-1.498-.95-1.832-2.242-1.487-3.89.31-1.369 1.111-2.701 1.625-3.538.137-.102.048.191-.52 1.243-.508.962-1.458 3.185-.155 4.924.031-3.764 2.91-6.606 3.173-10.41.065.048.275.192.37.245.556.35.836.956 1.878 1.051 1.193.026 1.648-.62 2.359-.901.592-.186 1.064-.514 1.333-.897 1.014 4.219 3.173 6.705 3.633 9.58.22-.003.439.025.651.083.825-2.133-.699-4.434-1.392-5.073-.281-.275-.293-.395-.156-.389.753.67 1.745 2.014 2.104 3.526.167.693.197 1.416.024 2.133.98.407 2.145 1.07 1.834 2.08-.131-.006-.19 0-.25 0 .19-.604-.234-1.052-1.363-1.56-1.171-.514-2.151-.514-2.289.747-1.469.477-1.458 2.573-1.541 4.016-.03.46-.216 1.075-.407 1.733-1.918 1.368-4.583 1.966-6.83.43zm15.381-.687c-.053 1.004-2.462 1.189-3.776 2.778-1.258 1.505-3.601 2.36-4.619.371-.565-1.377.502-2.867.657-4.595.063-1.45.151-3.154 1.13-3.603.271 2.403 2.115 2.092 3.417.788.538-.018.939-.054 1.35.305.592.508.425 1.81 1.023 2.486.633.693.836 1.165.818 1.47zM12.964 9.587c.12.113.281.269.479.424 1.4 1.063 2.333.61 3.531-.012.293-.155.652-.418.885-.621.233-.203.352-.377.185-.395-.168-.018-.156.156-.359.305-.263.191-.58.442-.83.586-1.258.679-2.135.92-3.275.03-.185-.15-.34-.3-.46-.413-.09-.083-.114-.275-.257-.293-.084-.005-.108.222.101.389Z"/></svg>