<svg xmlns="http://www.w3.org/2000/svg" viewBox="0 0 20 20"><path d="m12.186 10.598 4.84-4.84-2.248-2.247L9.94 8.347l-.551 2.8zm6.367-6.367c.42-.42.376-1.069 0-1.44l-.807-.808a1.015 1.015 0 0 0-1.44 0l-.807.808 2.247 2.247z"/><path d="m13.004 2.392-6.45 2.603L1.64 2.392A.45.45 0 0 0 1 2.8v13.172a.45.45 0 0 0 .26.408l5.06 2.648c.12.058.26.058.38 0l6.822-2.542 4.838 2.542a.45.45 0 0 0 .64-.408V5.63l-2 1.862v8.576l-2.987-1.488-.026-3.909-.999.89.023 3.02L7 16.812V5.914l5.997-2.398.006.607 1.214-1.185-.833-.547a.422.422 0 0 0-.38 0zM3 4.277 6 5.85v10.877l-3-1.602z"/></svg>