<svg width="80" height="56" viewBox="0 0 21.167 14.817" xmlns="http://www.w3.org/2000/svg"><defs><linearGradient id="a" gradientUnits="userSpaceOnUse" x1="25.712" y1="32.037" x2="25.253" y2="1.835" gradientTransform="matrix(.1919 0 0 .1919 4.013 2.676)"><stop offset="0" style="stop-color:#589632"/><stop offset="1" style="stop-color:#93b023"/></linearGradient><linearGradient gradientTransform="matrix(.1919 0 0 .1919 4.013 2.676)" id="b" gradientUnits="userSpaceOnUse" x1="16.276" y1="32.118" x2="15.808" y2="1.311"><stop offset="0" style="stop-color:#589632"/><stop offset="1" style="stop-color:#93b023"/></linearGradient></defs><path d="M.826.718h13.381v13.38H.827Z" style="fill:none;stroke-width:.557535"/><path style="fill:#ee7913;stroke-width:.191909" d="M6.626 5.29v.769l.768.855v-.855l.835-.003-.768-.765Z"/><path style="fill:url(#a);stroke-width:.191909" d="m7.778 7.274 1.388 1.472h.914V7.9L8.617 6.44h-.839Z"/><path style="fill:#f0e64a;stroke-width:.191909" d="M7.393 6.059v.855l.385.36v-.832h.84l-.389-.386Z"/><path style="fill:url(#b);stroke-width:.191908" d="M7.468 7.51a1.456 1.456 0 0 1-.364.036 1.877 1.877 0 0 1-1.858-1.895c0-1.07.845-1.876 1.858-1.876 1.012 0 1.819.806 1.819 1.876 0 .174-.03.377-.07.535l.937.894a2.878 2.878 0 0 0 .373-1.435c0-1.65-1.316-2.884-3.078-2.884-1.755 0-3.072 1.226-3.072 2.883 0 1.665 1.317 2.916 3.072 2.916.452 0 .81-.057 1.19-.208z"/><path style="opacity:.15;fill:#fff;stroke-width:.191909" d="M7.461 5.29 10.08 7.9v.846L6.625 5.29Z"/><path style="fill:#505050;fill-opacity:1;stroke-width:2.19395" d="M6.742 6.928c-.961.013-1.512.18-1.512 1.459v27.642c0 1.992-.082 3.25 1.415 3.25h16.28v6.944H18.04v2.85h19.555v-2.85h-4.887v-6.944h15.258c2.154 0 2.437-.792 2.437-3.275V8.326c0-.831-.48-1.398-1.398-1.398H6.742zm-.11 1.402h42.372v27.703H6.633V8.33zm39.821 28.705a.56.56 0 0 1 .56.559.56.56 0 0 1-.56.56.56.56 0 0 1-.558-.56.56.56 0 0 1 .558-.559z" transform="matrix(.26459 0 0 .26459 0 0)"/><path style="fill:#505050;fill-opacity:1;stroke:none;stroke-width:1.11507;stroke-miterlimit:4;stroke-dasharray:none;stroke-opacity:1" d="M15.044 1.833a.278.278 0 0 0-.28.279v10.593a.28.28 0 0 0 .28.279h5.017a.278.278 0 0 0 .28-.28V2.112a.278.278 0 0 0-.28-.279zm.82 1.115h3.377c.778.061.657 1.113.001 1.115h-3.379c-.733-.047-.714-1.076 0-1.115zm1.735 5.405a.886.886 0 0 1 .884.884.887.887 0 0 1-.884.884.886.886 0 0 1-.883-.884c0-.486.397-.884.883-.884zm0 .325a.556.556 0 0 0-.558.559c0 .745 1.118.745 1.118 0a.556.556 0 0 0-.56-.559z"/></svg>