<svg xmlns="http://www.w3.org/2000/svg" viewBox="0 0 120 120"><path d="M6.236 59.997C6.236 30.303 30.306 6.232 60 6.232c29.693 0 53.764 24.071 53.764 53.765 0 29.693-24.072 53.764-53.764 53.764-29.693 0-53.763-24.07-53.763-53.764z" style="fill:#2ad4ff;fill-opacity:1;stroke:#00aad4;stroke-width:10.649;stroke-miterlimit:4;stroke-linecap:butt;stroke-linejoin:round"/><path transform="rotate(90)" fill="#fff" d="M45.425-91.775h29.11c9.468 0 17.09 7.622 17.09 17.09v29.11c0 9.468-7.622 17.09-17.09 17.09h-29.11a17.053 17.053 0 0 1-17.09-17.09v-29.11c0-9.468 7.622-17.09 17.09-17.09z"/><path transform="rotate(90)" fill="#000" d="M48.706-84.642h22.548c7.331 0 13.233 5.902 13.233 13.233v22.538c0 7.33-5.902 13.232-13.233 13.232H48.706A13.204 13.204 0 0 1 35.473-48.87V-71.41c0-7.331 5.902-13.233 13.233-13.233z"/><path fill="#000" d="M67.015 40.415H73.5a3.338 3.338 0 0 1 3.345 3.346v.938a3.338 3.338 0 0 1-3.345 3.345h-6.485a3.338 3.338 0 0 1-3.345-3.345v-.938a3.338 3.338 0 0 1 3.345-3.346z"/><path fill="#000" d="M30.076 18.785a4.245 4.245 0 0 0-1.363.192l-16.166 5.755a56.655 56.655 0 0 0-2.52 3.649l19.455-6.945c.549-.187 1.106.03 1.229.765v8.758c.062 1.915.705 3.342 2.15 4.61l5.485 5.327 1.843-1.996-5.484-5.177c-.699-.691-1.336-1.577-1.383-2.766v-8.758c-.165-1.903-1.407-3.352-3.246-3.414zm59.826 0c-1.839.062-3.08 1.511-3.246 3.414v8.758c-.047 1.189-.685 2.075-1.385 2.766L79.787 38.9l1.844 1.996 5.484-5.328c1.445-1.267 2.09-2.694 2.153-4.609v-8.758c.122-.734.68-.952 1.228-.765l19.455 6.945a56.684 56.684 0 0 0-2.521-3.649l-16.166-5.755a4.234 4.234 0 0 0-1.362-.192zM38.36 79.065l-5.484 5.33c-1.445 1.267-2.09 2.694-2.152 4.609v8.756c-.123.734-.68.954-1.229.767l-19.447-6.945a56.4 56.4 0 0 0 2.502 3.648l16.178 5.756c2.57.772 4.404-.88 4.607-3.222v-8.76c.047-1.189.686-2.073 1.385-2.764l5.484-5.177-1.844-1.999zm43.237.074-1.844 1.998 5.484 5.177c.7.692 1.336 1.575 1.383 2.764v8.76c.203 2.342 2.038 3.995 4.61 3.223l16.166-5.756a56.656 56.656 0 0 0 2.52-3.649L90.46 98.602c-.549.186-1.106-.034-1.229-.768v-8.756c-.062-1.915-.707-3.342-2.152-4.61l-5.484-5.33z"/></svg>