<svg xmlns="http://www.w3.org/2000/svg" viewBox="0 0 60 60"><path style="fill:none;fill-opacity:1;stroke:#b7b7b7;stroke-width:.26458335px;stroke-linecap:butt;stroke-linejoin:miter;stroke-opacity:1" d="m43.033 37.797-8.08-21.64M21.205 45.19 16.75 30.146"/><path d="M10.503 22.56 3.44 27.072l7.394 24.26 10.37-6.141 13.23.52 8.599-7.914 13.229-.922-9.993-20.434-11.315-.283-8.08 6.638-3.047-.402" style="opacity:1;fill:none;stroke:#3a3a3a;stroke-width:1.60000002;stroke-linecap:butt;stroke-linejoin:miter;stroke-miterlimit:4;stroke-dasharray:none;stroke-opacity:1"/><path d="m26.874 22.796 7.56 22.915" style="fill:none;stroke:#3a3a3a;stroke-width:1.0583334;stroke-linecap:butt;stroke-linejoin:miter;stroke-miterlimit:4;stroke-dasharray:none;stroke-opacity:1"/><path d="M17.32 7.46a7.844 7.844 0 0 0-7.844 7.843c0 .503.033.997.137 1.47.56 2.55 3.179 5.333 7.27 12.335.388.562.43.64.799.013 4.179-6.887 6.755-10.24 7.385-12.594.104-.39.095-.807.095-1.224a7.843 7.843 0 0 0-7.843-7.843zm.024 2.73a4.337 4.337 0 0 1 4.338 4.338 4.337 4.337 0 0 1-4.338 4.337 4.337 4.337 0 0 1-4.337-4.337 4.337 4.337 0 0 1 4.337-4.338z" style="opacity:1;fill:#3a3a3a;fill-opacity:1;stroke:none;stroke-width:1.60000002;stroke-linecap:square;stroke-linejoin:miter;stroke-miterlimit:4;stroke-dasharray:none;stroke-dashoffset:0;stroke-opacity:1;paint-order:stroke fill markers"/><path d="M45.756 28.85c-2.158-3.276-10.35-5.125-16.16 2.057-5.812 7.18-2.316 5.07-6.934 8.97-5.055 4.266-9.998-4.042-9.998-4.042" style="fill:none;stroke:#3a3a3a;stroke-width:1.10000002;stroke-linecap:butt;stroke-linejoin:miter;stroke-miterlimit:4;stroke-dasharray:2.2,2.2"/><circle r="1.85" cy="34.172" cx="10.964" style="opacity:1;fill:none;fill-opacity:1;stroke:#3a3a3a;stroke-width:1.10000002;stroke-linecap:square;stroke-linejoin:miter;stroke-miterlimit:4"/><circle r="2.397" cy="32.219" cx="47.312" style="opacity:1;fill:#3a3a3a;fill-opacity:1"/></svg>