<svg xmlns="http://www.w3.org/2000/svg" viewBox="0 0 300 50"><defs><linearGradient id="a" gradientUnits="userSpaceOnUse" x1="25.712" y1="32.037" x2="25.253" y2="1.835"><stop offset="0" style="stop-color:#589632"/><stop offset="1" style="stop-color:#93b023"/></linearGradient><linearGradient gradientTransform="matrix(.58365 0 0 .58365 18.345 259.209)" id="b" gradientUnits="userSpaceOnUse" x1="16.276" y1="32.118" x2="15.808" y2="1.311"><stop offset="0" style="stop-color:#589632"/><stop offset="1" style="stop-color:#93b023"/></linearGradient></defs><g transform="translate(0 -247)"><rect style="fill:#fff;fill-opacity:1;stroke:#505050;stroke-width:2.6402216;stroke-linejoin:round;stroke-miterlimit:4;stroke-dasharray:none;stroke-opacity:1" width="46.62" height="36.438" x="243.183" y="254.69" rx="3" ry="3"/><path d="M2.644 247.326h50.573V297.9H2.644z" style="fill:none;stroke-width:2.10721707"/><path style="fill:#505050;fill-opacity:1;stroke:none;stroke-width:4.21443415;stroke-miterlimit:4;stroke-dasharray:none;stroke-opacity:1" d="M56.378 251.54c-.584 0-1.054.47-1.054 1.054v40.037c0 .584.47 1.054 1.054 1.054h18.965c.584 0 1.054-.47 1.054-1.054v-40.037c0-.583-.47-1.053-1.054-1.053zm3.1 4.215h12.766c1.104 0 2.045.941 2.045 2.046v.123c0 1.104-.94 2.046-2.045 2.046H59.477c-1.104 0-2.045-.942-2.045-2.046v-.123c0-1.105.94-2.046 2.045-2.046zm6.56 20.43a3.35 3.35 0 0 1 3.341 3.338 3.353 3.353 0 0 1-3.342 3.342 3.35 3.35 0 0 1-3.337-3.342c0-1.837 1.5-3.338 3.337-3.338zm0 1.227a2.1 2.1 0 0 0-2.112 2.111c0 1.175.937 2.116 2.111 2.116 1.175 0 2.116-.941 2.116-2.116 0-1.175-.94-2.111-2.116-2.111z"/><path transform="matrix(.58365 0 0 .58365 18.345 259.209)" style="fill:#ee7913" d="M13.613 13.625v4l4 4.457v-4.457l4.357-.013-4.001-3.987z"/><path transform="matrix(.58365 0 0 .58365 18.345 259.209)" style="fill:url(#a)" d="m19.613 23.958 7.24 7.667h4.76v-4.403l-7.624-7.598-4.376.001z"/><path transform="matrix(.58365 0 0 .58365 18.345 259.209)" style="fill:#f0e64a" d="M17.613 17.625v4.457l2 1.876v-4.333l4.376-.001-2.019-2.012z"/><path style="fill:url(#b);stroke-width:.58364743" d="M28.85 273.908a4.43 4.43 0 0 1-1.109.114c-3.052 0-5.648-2.51-5.648-5.764 0-3.255 2.568-5.709 5.648-5.709 3.08 0 5.534 2.454 5.534 5.709 0 .53-.09 1.144-.212 1.627l2.85 2.719a8.755 8.755 0 0 0 1.135-4.367c0-5.016-4.002-8.771-9.364-8.771-5.336 0-9.34 3.73-9.34 8.77 0 5.065 4.004 8.87 9.34 8.87 1.378 0 2.465-.175 3.618-.636z"/><path transform="matrix(.58365 0 0 .58365 18.345 259.209)" style="opacity:.15;fill:#fff" d="m17.969 13.625 13.644 13.597v4.403l-18-18z"/><path d="M267.192 263.742c-6.624 0-12 5.376-12 12 0 6.625 5.376 12 12 12s12-5.375 12-12c0-6.624-5.376-12-12-12zm-1.2 21.517a9.586 9.586 0 0 1-8.4-9.516c0-.744.096-1.452.252-2.148l5.748 5.748v1.2c0 1.32 1.08 2.4 2.4 2.4zm8.28-3.048a2.38 2.38 0 0 0-2.28-1.668h-1.2v-3.6c0-.66-.54-1.2-1.2-1.2h-7.2v-2.4h2.4c.66 0 1.2-.54 1.2-1.2v-2.4h2.4c1.32 0 2.4-1.08 2.4-2.4v-.493c3.516 1.428 6 4.872 6 8.893 0 2.496-.96 4.764-2.52 6.468z" style="fill:#505050;fill-opacity:1;stroke-width:1.20002604"/><path style="fill:#505050;fill-opacity:1;stroke:none;stroke-width:2.82920504;stroke-linejoin:miter;stroke-miterlimit:4;stroke-dasharray:none;stroke-opacity:1" d="M243.183 254.69h46.62v6.15h-46.62z"/><path style="fill:#fff;fill-opacity:1;stroke:none;stroke-width:1.38369715;stroke-linejoin:miter;stroke-miterlimit:4;stroke-dasharray:none;stroke-opacity:1" d="M253.845 256.501h34.289v2h-34.289z"/><path style="fill:#fff;fill-opacity:1;stroke:none;stroke-width:.4331606;stroke-linejoin:miter;stroke-miterlimit:4;stroke-dasharray:none;stroke-opacity:1" d="M244.178 256.501h3.36v2h-3.36zM248.908 256.501h3.36v2h-3.36z"/><rect ry="3.353" rx="3.138" y="262.252" x="136.518" height="26.04" width="27.389" style="fill:#505050;fill-opacity:1;stroke:none;stroke-width:.54057944;stroke-linejoin:miter;stroke-miterlimit:4;stroke-dasharray:none;stroke-opacity:1"/><rect style="fill:#505050;fill-opacity:1;stroke:#fff;stroke-width:.02605212;stroke-miterlimit:4;stroke-dasharray:none;stroke-opacity:1" width="24.453" height="2.625" x="138.019" y="291.535" rx="1.006" ry="1.006"/><path style="fill:#505050;fill-opacity:1;stroke:none;stroke-width:.02150926;stroke-miterlimit:4;stroke-dasharray:none;stroke-opacity:1" d="M146.229 290.741h8.212v4.695h-8.212z"/><path style="fill:#505050;fill-opacity:1;stroke:none;stroke-width:.01110068;stroke-miterlimit:4;stroke-dasharray:none;stroke-opacity:1" d="M149.02 287.214h2.496v4.114h-2.496z"/><rect style="fill:#00b8e5;fill-opacity:1;stroke:none;stroke-width:.02080121;stroke-miterlimit:4;stroke-dasharray:none;stroke-opacity:1" width="24.453" height="6.5" x="138.055" y="279.983" rx="1.609" ry="1.529"/><circle style="fill:#fff;fill-opacity:1;stroke:none;stroke-width:.02164217;stroke-miterlimit:4;stroke-dasharray:none;stroke-opacity:1" cx="140.312" cy="282.02" r=".879"/><path style="fill:#fff;fill-opacity:1;stroke:#fff;stroke-width:.01187876;stroke-miterlimit:4;stroke-dasharray:none;stroke-opacity:1" d="M153.372 283.113h6.036v1.948h-6.036z"/><rect ry="1.529" rx="1.609" y="272.137" x="138.055" height="6.5" width="24.453" style="fill:#00b8e5;fill-opacity:1;stroke:none;stroke-width:.02080121;stroke-miterlimit:4;stroke-dasharray:none;stroke-opacity:1"/><circle r=".879" cy="274.174" cx="140.312" style="fill:#fff;fill-opacity:1;stroke:none;stroke-width:.02164217;stroke-miterlimit:4;stroke-dasharray:none;stroke-opacity:1"/><path style="fill:#fff;fill-opacity:1;stroke:#fff;stroke-width:.01187876;stroke-miterlimit:4;stroke-dasharray:none;stroke-opacity:1" d="M153.372 275.268h6.036v1.948h-6.036z"/><rect style="fill:#00b8e5;fill-opacity:1;stroke:#646464;stroke-width:.0207682;stroke-miterlimit:4;stroke-dasharray:none;stroke-opacity:1" width="24.454" height="6.479" x="138.054" y="264.02" rx="1.609" ry="1.524"/><circle style="fill:#fff;fill-opacity:1;stroke:none;stroke-width:.02164217;stroke-miterlimit:4;stroke-dasharray:none;stroke-opacity:1" cx="140.312" cy="266.036" r=".879"/><path style="fill:#fff;fill-opacity:1;stroke:#fff;stroke-width:.01187876;stroke-miterlimit:4;stroke-dasharray:none;stroke-opacity:1" d="M153.372 267.13h6.036v1.948h-6.036z"/><path style="fill:none;stroke:#7d7d7d;stroke-width:1;stroke-linecap:butt;stroke-linejoin:round;stroke-miterlimit:4;stroke-dasharray:none;stroke-opacity:1" d="M77.063 291.008c4.608-.245 6.944.328 11.886-.225 5.523-.97 7.65-3.145 2.313-5.406-3.09-1.309-4.988-4.26-2.627-6.143 1.716-1.37 3.175-1.697 9.478-1.555M135.95 292.144c-4.61-.245-4.068-.477-9.01-1.03-5.522-.97-5.32-2.598-2.642-5.5 2.679-2.9 1.277-5.685-4.607-6.636-3.605-.564-6.942-.595-6.942-.595"/><path style="fill:none;stroke:#7d7d7d;stroke-width:.97149628;stroke-linecap:butt;stroke-linejoin:round;stroke-miterlimit:4;stroke-dasharray:none;stroke-opacity:1" d="M167.504 292.658c1.427-.021 13.17-.043 14.448-.065 21.528-.379 19.506-.944 21.188-2.016 1.781-1.135-4.57-2.759-1.203-5.012 1.919-1.284 18.165-.544 25.77-.622 5.739-.06 10.427-1.298 10.427-1.298"/><path style="fill:#7d7d7d;fill-opacity:1;stroke:none;stroke-width:.65035957;stroke-linejoin:round;stroke-miterlimit:4;stroke-dasharray:none;stroke-opacity:1" d="M96.98 275.828c-1.44 0-2.599.654-2.599 1.465v.67c0 .811 1.16 1.465 2.598 1.465h2.288v-3.6z"/><path style="fill:#7d7d7d;fill-opacity:1;stroke:none;stroke-width:.45866433;stroke-linejoin:round;stroke-miterlimit:4;stroke-dasharray:none;stroke-opacity:1" d="M97.542 277.097h3.591v.898h-3.591z"/><g style="font-style:normal;font-weight:400;font-size:11.28462982px;line-height:1.25;font-family:sans-serif;letter-spacing:0;word-spacing:0;fill:#f44336;fill-opacity:1;stroke:none;stroke-width:.28211573"><path d="m109.927 293.019-2.231 3.003 2.347 3.168h-1.196l-1.796-2.425-1.796 2.425h-1.196l2.397-3.23-2.193-2.941h1.196l1.636 2.198 1.637-2.198z" style="fill:#f44336;fill-opacity:1;stroke-width:.28211573" transform="matrix(1.06626 0 0 .93785 -7.749 0)" aria-label="x"/></g><path d="M114.767 276.413c1.437.049 2.603.727 2.56 1.52l.036.655c-.044.794-1.237 1.394-2.675 1.345l-2.285-.077.064-3.52z" style="fill:#7d7d7d;fill-opacity:1;stroke:none;stroke-width:.64331877;stroke-linejoin:round;stroke-miterlimit:4;stroke-dasharray:none;stroke-opacity:1"/><path d="M48.526 251.541H6.407c-1.05 0-1.655.118-1.655 1.459v27.645c0 1.99-.083 3.248 1.413 3.248h16.284v6.942H17.56v2.85h19.557v-2.85h-4.89v-6.942h15.259c2.154 0 2.44-.791 2.44-3.277V252.94c0-.831-.48-1.4-1.4-1.4zm0 29.106H6.152V252.94h42.374z" style="fill:#505050;fill-opacity:1;stroke-width:2.19399858"/><circle style="opacity:1;fill:#fff;fill-opacity:1;stroke:none;stroke-width:.06822593;stroke-linecap:butt;stroke-linejoin:miter;stroke-miterlimit:4;stroke-dasharray:.06822593,.2046778;stroke-dashoffset:0;stroke-opacity:1" cx="45.976" cy="282.208" r=".56"/><path style="fill:#505050;fill-opacity:1;stroke-width:1.74171853" d="M152.646 248.092c-5.164 0-11.236 3.313-13.47 7.387-5.378.544-11.147 3.81-11.147 9.055 0 4.51 3.097 8.34 7.377 9.677v-3.674c-2.262-1.14-3.804-3.399-3.804-6.003.209-4.752 6.049-6.027 10.004-5.727 1.18-3.921 6.537-7.32 11.04-7.32 6.395.04 12.44 4.08 11.944 9.123 5.121-.497 8.428 1.988 8.57 5.622.142 3.474-4.666 3.995-7.945 4.653v3.58c6.252-1.025 11.637-2.537 11.519-8.233-.093-4.481-4.192-8.644-8.838-8.95-1.215-5.857-8.746-9.19-15.25-9.19z"/></g></svg>