<svg width="60" height="56" viewBox="0 0 15.875 14.817" xmlns="http://www.w3.org/2000/svg"><g transform="translate(0 -217)"><rect ry=".887" rx=".83" y="221.892" x="3.74" height="6.89" width="7.247" style="fill:#505050;fill-opacity:1;stroke:none;stroke-width:.143028;stroke-linejoin:miter;stroke-miterlimit:4;stroke-dasharray:none;stroke-opacity:1"/><path style="fill:#505050;fill-opacity:1;stroke:none;stroke-width:.0260521;stroke-miterlimit:4;stroke-dasharray:none;stroke-opacity:1" d="M26.637 43.45v3.527h-2.791v.794h-7.203c-.558 0-1.006.449-1.006 1.006v.614c0 .557.448 1.005 1.006 1.005h7.203v1.276h8.213v-1.276h7.025c.557 0 1.006-.448 1.006-1.005v-.614c0-.557-.449-1.006-1.006-1.006h-7.025v-.794h-2.926v-3.528h-2.496z" transform="matrix(.26458 0 0 .26458 0 217)"/><rect style="fill:#00b8e5;fill-opacity:1;stroke:none;stroke-width:.00550365;stroke-miterlimit:4;stroke-dasharray:none;stroke-opacity:1" width="6.47" height="1.72" x="4.147" y="226.583" rx=".426" ry=".405"/><circle style="fill:#fff;fill-opacity:1;stroke:none;stroke-width:.00572617;stroke-miterlimit:4;stroke-dasharray:none;stroke-opacity:1" cx="4.744" cy="227.122" r=".233"/><path style="fill:#fff;fill-opacity:1;stroke:#fff;stroke-width:.00314293;stroke-miterlimit:4;stroke-dasharray:none;stroke-opacity:1" d="M8.2 227.411h1.596v.516H8.2z"/><rect ry=".405" rx=".426" y="224.507" x="4.147" height="1.72" width="6.47" style="fill:#00b8e5;fill-opacity:1;stroke:none;stroke-width:.00550365;stroke-miterlimit:4;stroke-dasharray:none;stroke-opacity:1"/><circle r=".233" cy="225.046" cx="4.744" style="fill:#fff;fill-opacity:1;stroke:none;stroke-width:.00572617;stroke-miterlimit:4;stroke-dasharray:none;stroke-opacity:1"/><path style="fill:#fff;fill-opacity:1;stroke:#fff;stroke-width:.00314293;stroke-miterlimit:4;stroke-dasharray:none;stroke-opacity:1" d="M8.2 225.335h1.596v.516H8.2z"/><rect style="fill:#00b8e5;fill-opacity:1;stroke:#646464;stroke-width:.00549492;stroke-miterlimit:4;stroke-dasharray:none;stroke-opacity:1" width="6.47" height="1.714" x="4.146" y="222.359" rx=".426" ry=".403"/><circle style="fill:#fff;fill-opacity:1;stroke:none;stroke-width:.00572617;stroke-miterlimit:4;stroke-dasharray:none;stroke-opacity:1" cx="4.744" cy="222.893" r=".233"/><path style="fill:#fff;fill-opacity:1;stroke:#fff;stroke-width:.00314293;stroke-miterlimit:4;stroke-dasharray:none;stroke-opacity:1" d="M8.2 223.182h1.596v.516H8.2z"/><path style="fill:#505050;fill-opacity:1;stroke-width:.46083" d="M8.007 218.145c-1.366 0-2.973.877-3.564 1.955-1.423.144-2.949 1.008-2.949 2.395 0 1.194.82 2.207 1.952 2.56v-.971c-.599-.302-1.007-.9-1.007-1.589.056-1.257 1.6-1.594 2.647-1.515.312-1.037 1.73-1.937 2.921-1.937 1.692.011 3.292 1.08 3.16 2.414 1.355-.131 2.34.384 2.378 1.345.037.92-1.345 1.2-2.212 1.374v.947c1.654-.271 3.189-.814 3.157-2.32-.024-1.186-1.219-2.145-2.448-2.226-.321-1.55-2.314-2.432-4.035-2.432z"/></g></svg>